<?xml version="1.0" standalone="no"?>
<!DOCTYPE svg PUBLIC "-//W3C//DTD SVG 20010904//EN"
 "http://www.w3.org/TR/2001/REC-SVG-20010904/DTD/svg10.dtd">
<svg version="1.0" xmlns="http://www.w3.org/2000/svg"
 width="100.000000pt" height="100.000000pt" viewBox="0 0 100.000000 100.000000"
 preserveAspectRatio="xMidYMid meet">

<g transform="translate(0.000000,100.000000) scale(0.100000,-0.100000)"
fill="#000000" stroke="none">
<path d="M25 628 c-8 -28 -15 -76 -15 -105 0 -49 2 -53 24 -53 22 0 25 5 31
63 3 34 10 77 15 95 7 25 5 32 -6 32 -8 0 -14 5 -14 10 0 6 -4 10 -10 10 -5 0
-16 -23 -25 -52z"/>
<path d="M130 520 c0 -48 1 -50 28 -49 16 1 20 3 10 6 -22 5 -24 33 -3 33 8 0
15 5 15 10 0 6 -7 10 -15 10 -21 0 -19 28 3 33 10 3 6 5 -10 6 -27 1 -28 -1
-28 -49z"/>
<path d="M210 522 c0 -29 5 -52 10 -52 6 0 10 11 10 25 0 30 11 32 35 5 28
-31 35 -24 33 28 -1 36 -2 39 -5 15 -2 -18 -7 -33 -11 -33 -3 0 -21 14 -39 32
l-33 32 0 -52z"/>
<path d="M346 554 c-19 -19 -20 -44 -3 -66 28 -36 90 -29 68 8 -10 18 -10 18
-11 1 0 -28 -44 -18 -48 11 -4 28 12 49 41 55 18 4 18 4 -5 6 -15 0 -34 -6
-42 -15z"/>
</g>
</svg>
